<?xml version="1.0"?>
<svg xmlns="http://www.w3.org/2000/svg" height="512px" viewBox="0 0 480 480" width="512px" class=""><g><path d="m472 40v32h-464v-32c0-17.671875 14.328125-32 32-32h400c17.671875 0 32 14.328125 32 32zm0 0" fill="#bddbff" class="active-path" style="fill:#FFFFFF"/><g fill="#3d9ae2"><path d="m440 0h-400c-22.082031.0273438-39.9726562 17.917969-40 40v400c.0273438 22.082031 17.917969 39.972656 40 40h400c22.082031-.027344 39.972656-17.917969 40-40v-400c-.027344-22.082031-17.917969-39.9726562-40-40zm-400 16h400c13.253906 0 24 10.746094 24 24v24h-448v-24c0-13.253906 10.746094-24 24-24zm400 448h-400c-13.253906 0-24-10.746094-24-24v-360h448v360c0 13.253906-10.746094 24-24 24zm0 0" class="" style="fill:#16B8C2"/><path d="m48 32h16v16h-16zm0 0" class="" style="fill:#16B8C2"/><path d="m80 32h16v16h-16zm0 0" class="" style="fill:#16B8C2"/><path d="m112 32h16v16h-16zm0 0" class="" style="fill:#16B8C2"/><path d="m176 32h224v16h-224zm0 0" class="" style="fill:#16B8C2"/><path d="m144 304v24h16v-24h24v-16h-24v-72c0-3.398438-2.144531-6.425781-5.351562-7.550781-3.207032-1.128907-6.773438-.101563-8.894532 2.550781l-64 80c-1.925781 2.402344-2.300781 5.691406-.96875 8.464844 1.335938 2.773437 4.136719 4.535156 7.214844 4.535156zm0-65.191406v49.191406h-39.351562zm0 0" class="" style="fill:#16B8C2"/><path d="m376 216c0-3.398438-2.144531-6.425781-5.351562-7.550781-3.207032-1.128907-6.773438-.101563-8.894532 2.550781l-64 80c-1.925781 2.402344-2.300781 5.691406-.96875 8.464844 1.335938 2.773437 4.136719 4.535156 7.214844 4.535156h56v24h16v-24h24v-16h-24zm-16 22.808594v49.191406h-39.351562zm0 0" class="" style="fill:#16B8C2"/><path d="m224 208c-13.253906 0-24 10.746094-24 24v72c0 13.253906 10.746094 24 24 24h32c13.253906 0 24-10.746094 24-24v-72c0-13.253906-10.746094-24-24-24zm40 24v72c0 4.417969-3.582031 8-8 8h-32c-4.417969 0-8-3.582031-8-8v-72c0-4.417969 3.582031-8 8-8h32c4.417969 0 8 3.582031 8 8zm0 0" class="" style="fill:#16B8C2"/><path d="m88 160h32v16h-32zm0 0" class="" style="fill:#16B8C2"/><path d="m136 160h208v16h-208zm0 0" class="" style="fill:#16B8C2"/><path d="m360 160h32v16h-32zm0 0" class="" style="fill:#16B8C2"/><path d="m88 360h32v16h-32zm0 0" class="" style="fill:#16B8C2"/><path d="m136 360h208v16h-208zm0 0" class="" style="fill:#16B8C2"/><path d="m360 360h32v16h-32zm0 0" class="" style="fill:#16B8C2"/></g></g> </svg>
