<?xml version="1.0" encoding="iso-8859-1"?>
<!-- Generator: Adobe Illustrator 19.0.0, SVG Export Plug-In . SVG Version: 6.00 Build 0)  -->
<svg version="1.1" xmlns="http://www.w3.org/2000/svg" xmlns:xlink="http://www.w3.org/1999/xlink" x="0px" y="0px"
	 viewBox="0 0 479.984 479.984" style="enable-background:new 0 0 479.984 479.984;" xml:space="preserve">
<g>
	<g>
		<g>
			<path d="M56.066,96h280c4.418,0,8-3.582,8-8s-3.582-8-8-8h-280c-4.418,0-8,3.582-8,8S51.648,96,56.066,96z"/>
			<path d="M56.066,160h280c4.418,0,8-3.582,8-8s-3.582-8-8-8h-280c-4.418,0-8,3.582-8,8S51.648,160,56.066,160z"/>
			<path d="M56.066,224h280c4.418,0,8-3.582,8-8s-3.582-8-8-8h-280c-4.418,0-8,3.582-8,8S51.648,224,56.066,224z"/>
			<path d="M440.066,282.464V8c0-4.418-3.582-8-8-8h-424c-4.418,0-8,3.582-8,8v424c0,4.418,3.582,8,8,8h274.4
				c6.575,7.864,14.188,14.797,22.632,20.608c51.103,34.749,120.7,21.492,155.45-29.612
				C492.807,383.556,483.96,319.404,440.066,282.464z M16.066,424V16h408v255.016c-2.432-1.408-4.915-2.723-7.448-3.944
				l-0.672-0.296c-3.024-1.44-6.112-2.696-9.232-3.848c-0.864-0.32-1.728-0.632-2.6-0.928c-3.36-1.144-6.752-2.184-10.184-2.984
				c-60.284-14.205-120.67,23.15-134.875,83.435c-1.973,8.374-2.976,16.946-2.989,25.549c0,2.88,0.136,5.744,0.352,8.584
				c0.064,0.88,0.168,1.752,0.256,2.624c0.192,2,0.432,4,0.736,5.952c0.144,0.952,0.296,1.896,0.464,2.84
				c0.36,2.024,0.8,4,1.264,6.024c0.176,0.76,0.336,1.536,0.528,2.288c0.704,2.72,1.496,5.408,2.4,8.056
				c0.128,0.36,0.28,0.72,0.408,1.08c0.805,2.283,1.691,4.536,2.656,6.76c0.352,0.8,0.728,1.6,1.104,2.4
				c0.8,1.792,1.696,3.576,2.624,5.328c0.432,0.8,0.864,1.6,1.32,2.448c0.296,0.528,0.56,1.072,0.864,1.6L16.066,424z
				 M457.926,401.492c-13.977,37.544-49.798,62.462-89.86,62.508h0c-19.25,0.044-38.063-5.744-53.96-16.6
				c-8.222-5.633-15.531-12.494-21.672-20.344c-17.052-21.741-23.859-49.798-18.664-76.936c9.875-52.092,60.108-86.315,112.2-76.441
				c1.433,0.272,2.861,0.576,4.28,0.913c3.803,0.906,7.544,2.055,11.2,3.44C451.138,296.529,476.423,351.805,457.926,401.492z"/>
			<path d="M432.066,352c4.418,0,8-3.582,8-8s-3.582-8-8-8h-32v-32c0-4.418-3.582-8-8-8s-8,3.582-8,8v32h-32v-32
				c0-4.418-3.582-8-8-8s-8,3.582-8,8v32h-32c-4.418,0-8,3.582-8,8s3.582,8,8,8h32v32h-32c-4.418,0-8,3.582-8,8s3.582,8,8,8h32v32
				c0,4.418,3.582,8,8,8s8-3.582,8-8v-32h32v32c0,4.418,3.582,8,8,8s8-3.582,8-8v-32h32c4.418,0,8-3.582,8-8s-3.582-8-8-8h-32v-32
				H432.066z M384.066,384h-32v-32h32V384z"/>
			<path d="M264.066,280c0-4.418-3.582-8-8-8h-200c-4.418,0-8,3.582-8,8s3.582,8,8,8h200C260.485,288,264.066,284.418,264.066,280z"
				/>
		</g>
	</g>
</g>
<g>
</g>
<g>
</g>
<g>
</g>
<g>
</g>
<g>
</g>
<g>
</g>
<g>
</g>
<g>
</g>
<g>
</g>
<g>
</g>
<g>
</g>
<g>
</g>
<g>
</g>
<g>
</g>
<g>
</g>
</svg>
