<svg id="Layer_1" enable-background="new 0 0 512 512" height="512" viewBox="0 0 512 512" width="512" xmlns="http://www.w3.org/2000/svg"><g><path d="m222.876 139.25c4.142 0 7.5-3.357 7.5-7.5v-8.283c0-4.143-3.358-7.5-7.5-7.5-4.143 0-7.5 3.357-7.5 7.5v8.283c0 4.143 3.357 7.5 7.5 7.5z"/><path d="m289.143 139.25c4.142 0 7.5-3.357 7.5-7.5v-8.283c0-4.143-3.358-7.5-7.5-7.5-4.143 0-7.5 3.357-7.5 7.5v8.283c0 4.143 3.357 7.5 7.5 7.5z"/><path d="m239.442 196.199h33.134c4.142 0 7.5-3.357 7.5-7.5s-3.358-7.5-7.5-7.5h-33.134c-4.143 0-7.5 3.357-7.5 7.5s3.358 7.5 7.5 7.5z"/><path d="m492.597 458.085c-.013-.032-.025-.063-.039-.095l-16.3-39.201c-.01-.025-.02-.05-.031-.074l-33.382-80.279c-7.555-18.85-21.16-33.176-38.444-40.609-7.423-9.829-19.2-16.195-32.439-16.195h-17.559c-4.143 0-7.5 3.357-7.5 7.5s3.357 7.5 7.5 7.5h17.559c14.134 0 25.633 11.499 25.633 25.633v141.601h-283.199v-141.6c0-14.134 11.499-25.633 25.633-25.633h184.375c4.143 0 7.5-3.357 7.5-7.5s-3.357-7.5-7.5-7.5h-11.219v-38.575c18.415-15.091 30.78-37.302 32.851-62.388h9.381c13.271 0 24.066-10.796 24.066-24.066v-33.137c0-13.271-10.796-24.066-24.066-24.066h-9.067v-9.028c0-.013.002-.026.002-.039s-.002-.026-.002-.039v-41.378c0-26.973-21.945-48.917-48.917-48.917h-82.832c-26.973 0-48.917 21.944-48.917 48.917v41.391c0 .009-.001.017-.001.026s.001.017.001.026v9.042h-9.067c-13.271 0-24.066 10.797-24.066 24.067v33.132c0 13.271 10.796 24.067 24.066 24.067h9.381c2.07 25.071 14.42 47.27 32.817 62.361v38.603h-58.787c-13.242 0-25.021 6.369-32.444 16.202-17.278 7.435-30.878 21.757-38.429 40.604l-33.38 80.274c-.011.027-.022.054-.034.081l-16.299 39.197c-.014.031-.026.064-.039.095-4.754 11.886-3.439 25.424 3.518 36.214 6.871 10.658 17.998 17.095 30.529 17.659.206.009.629.028 45.08.04.027 0 .054.002.081.002h8.281.002 26.416c4.143 0 7.5-3.357 7.5-7.5s-3.357-7.5-7.5-7.5h-26.414c-2.269 0-5.128-.001-8.327-.002-4.98-.023-9.025-4.079-9.025-9.064v-8.284c0-.432.352-.783.783-.783h16.567 298.199 16.567c.432 0 .783.352.783.783v8.284c0 4.985-4.045 9.042-9.026 9.064-3.195.001-6.049.002-8.316.002h-241.79c-4.143 0-7.5 3.357-7.5 7.5s3.357 7.5 7.5 7.5h241.795.002 8.271c.027 0 .054-.002.081-.002 44.462-.012 44.885-.031 45.094-.04 12.528-.564 23.655-7.001 30.526-17.659 6.956-10.79 8.271-24.328 3.517-36.214zm-137.18-343.685c4.999 0 9.066 4.067 9.066 9.066v33.137c0 4.999-4.067 9.066-9.066 9.066h-9.067v-51.269zm-140.816-99.4h82.832c18.702 0 33.917 15.215 33.917 33.917v33.917h-9.074c-4.999 0-9.066-4.067-9.066-9.067v-9.067h.785c4.143 0 7.5-3.357 7.5-7.5s-3.357-7.5-7.5-7.5h-115.968c-4.143 0-7.5 3.357-7.5 7.5s3.357 7.5 7.5 7.5h.782v9.066c0 5-4.067 9.067-9.067 9.067h-9.058v-33.917c0-18.701 15.214-33.916 33.917-33.916zm-67.05 141.602v-33.132c0-5 4.067-9.067 9.066-9.067h9.067l.001 51.267h-9.067c-5-.001-9.067-4.068-9.067-9.068zm33.134 16.568-.001-75.336h9.058c13.27 0 24.067-10.797 24.067-24.067v-9.067h84.399v9.066c0 13.271 10.796 24.067 24.066 24.067h9.074v75.336c0 41.538-33.794 75.332-75.332 75.332-41.537.001-75.331-33.793-75.331-75.331zm33.13 79.847c12.604 6.688 26.967 10.485 42.202 10.485 15.221 0 29.572-3.79 42.167-10.467v28.598h-84.369zm-130.791 91.134c.014-.031.026-.064.039-.095 3.774-9.435 9.391-17.429 16.376-23.543-.025.582-.044 1.165-.044 1.752v91.901h-45.485zm-8.479 135.498v8.284c0 3.203.634 6.259 1.774 9.056-11.252-.006-21.083-.013-22.311-.022-7.566-.377-14.297-4.307-18.481-10.797-4.32-6.701-5.147-15.099-2.214-22.472l14.359-34.532h51.723v34.699h-9.067c-8.703.001-15.783 7.081-15.783 15.784zm354.391-135.592c.013.032.025.063.039.095l29.115 70.016h-45.495v-91.901c0-.59-.02-1.176-.045-1.761 6.99 6.114 12.61 14.111 16.386 23.551zm47.537 142.114c-4.185 6.49-10.917 10.421-18.481 10.797-1.226.009-11.063.016-22.321.022 1.141-2.797 1.775-5.853 1.775-9.056v-8.284c0-8.703-7.08-15.783-15.783-15.783h-9.067v-34.699h51.733l14.36 34.533c2.93 7.372 2.104 15.769-2.216 22.47z"/><path d="m231.929 388.533c0 13.271 10.796 24.066 24.066 24.066s24.066-10.796 24.066-24.066-10.796-24.066-24.066-24.066-24.066 10.796-24.066 24.066zm33.132 0c0 4.999-4.067 9.066-9.066 9.066s-9.066-4.067-9.066-9.066 4.067-9.066 9.066-9.066 9.066 4.067 9.066 9.066z"/></g></svg>