<svg id="Layer_1" enable-background="new 0 0 512 512" height="512" viewBox="0 0 512 512" width="512" xmlns="http://www.w3.org/2000/svg"><g><path d="m512 127.467c0-58.572-32.668-117.345-34.059-119.818-2.656-4.725-7.654-7.649-13.074-7.649s-10.418 2.924-13.075 7.648c-1.391 2.473-34.059 61.247-34.059 119.818 0 19.8 12.278 36.775 29.615 43.744-1.675 9-3.97 21.836-6.547 37.656h-8.068c-44.948 0-81.4-36.367-81.4-81.4 0-61.519-49.769-111.4-111.4-111.4-132.536.001-239.933 107.236-239.933 239.934 0 132.536 107.235 239.933 239.933 239.933 69.05 0 133.852-29.731 178.857-80.003-.677 16.254-1.057 32.636-1.057 48.936 0 25.989 21.144 47.133 47.133 47.133s47.134-21.143 47.134-47.132c0-123.283-21.713-251.194-29.615-293.656 17.337-6.969 29.615-23.945 29.615-43.744zm-89.824 232.82c-37.42 65.249-106.952 105.646-182.243 105.646-115.757 0-209.933-94.176-209.933-209.933s94.176-209.933 209.933-209.933c44.954 0 81.4 36.372 81.4 81.4 0 48.906 36.623 111.4 114.759 111.4-6.131 41.51-10.802 82.262-13.916 121.42zm42.691 121.713c-9.447 0-17.133-7.686-17.133-17.133 0-77.555 8.794-157.095 17.136-215.098 8.34 57.982 17.13 137.502 17.13 215.098 0 9.447-7.686 17.133-17.133 17.133zm0-337.4c-9.447 0-17.133-7.686-17.133-17.133 0-27.721 8.979-56.46 17.148-76.87 8.16 20.37 17.119 49.066 17.119 76.87-.001 9.447-7.687 17.133-17.134 17.133z"/><path d="m239.933 80.333c-25.989 0-47.133 21.144-47.133 47.133s21.144 47.133 47.133 47.133c25.99 0 47.134-21.144 47.134-47.133s-21.144-47.133-47.134-47.133zm0 64.267c-9.447 0-17.133-7.686-17.133-17.133s7.686-17.133 17.133-17.133c9.448 0 17.134 7.686 17.134 17.133s-7.686 17.133-17.134 17.133z"/><path d="m239.933 337.4c-25.989 0-47.133 21.144-47.133 47.133s21.144 47.133 47.133 47.133c25.99 0 47.134-21.144 47.134-47.133s-21.144-47.133-47.134-47.133zm0 64.267c-9.447 0-17.133-7.686-17.133-17.133s7.686-17.133 17.133-17.133c9.448 0 17.134 7.686 17.134 17.133s-7.686 17.133-17.134 17.133z"/><path d="m128.624 144.6c-25.99 0-47.134 21.144-47.134 47.133s21.144 47.133 47.134 47.133c25.989 0 47.133-21.144 47.133-47.133s-21.144-47.133-47.133-47.133zm0 64.267c-9.448 0-17.134-7.686-17.134-17.133s7.686-17.133 17.134-17.133c9.447 0 17.133 7.686 17.133 17.133s-7.686 17.133-17.133 17.133z"/><path d="m351.243 273.133c-25.989 0-47.133 21.144-47.133 47.133s21.144 47.133 47.133 47.133 47.133-21.144 47.133-47.133-21.144-47.133-47.133-47.133zm0 64.267c-9.447 0-17.133-7.686-17.133-17.133s7.686-17.133 17.133-17.133 17.133 7.686 17.133 17.133-7.686 17.133-17.133 17.133z"/><path d="m128.624 273.133c-25.99 0-47.134 21.144-47.134 47.133s21.144 47.133 47.134 47.133c25.989 0 47.133-21.144 47.133-47.133s-21.144-47.133-47.133-47.133zm0 64.267c-9.448 0-17.134-7.686-17.134-17.133s7.686-17.133 17.134-17.133c9.447 0 17.133 7.686 17.133 17.133s-7.686 17.133-17.133 17.133z"/></g></svg>