<?xml version="1.0" encoding="UTF-8"?>
<svg width="512px" height="482px" viewBox="0 0 512 482" version="1.1" xmlns="http://www.w3.org/2000/svg" xmlns:xlink="http://www.w3.org/1999/xlink">
    <!-- Generator: Sketch 52.3 (67297) - http://www.bohemiancoding.com/sketch -->
    <g id="Page-2" stroke="none" stroke-width="1">
        <g id="Group-3">
            <g id="meeting">
                <circle id="Oval" cx="255.996" cy="45.812" r="45.043"></circle>
                <path d="M329.101,62.346 C321.53,95.786 291.697,120.884 256.001,120.884 C220.305,120.884 190.472,95.786 182.901,62.346 C156.05,68.329 135.886,92.252 135.886,120.884 L135.886,180.942 C135.886,197.496 149.361,210.971 165.915,210.971 C182.469,210.971 195.944,197.496 195.944,180.942 L195.944,150.913 L316.059,150.913 L316.059,180.942 C316.059,197.496 329.534,210.971 346.088,210.971 C362.642,210.971 376.117,197.496 376.117,180.942 L376.117,120.884 C376.116,92.252 355.951,68.329 329.101,62.346 Z" id="Path"></path>
                <path d="M488.717,367.722 C467.172,355.283 439.625,362.663 427.186,384.208 C414.748,405.751 422.129,433.3 443.674,445.737 C465.217,458.176 493.767,450.794 506.204,429.251 C518.643,407.707 510.26,380.16 488.717,367.722 Z" id="Path"></path>
                <path d="M461.237,265.171 L409.227,235.142 C394.89,226.865 376.484,231.797 368.207,246.134 C359.93,260.471 364.862,278.877 379.199,287.154 L405.205,302.168 L345.147,406.191 L319.141,391.177 C304.804,382.9 286.398,387.832 278.121,402.169 C269.844,416.506 274.776,434.912 289.113,443.189 L341.123,473.218 C365.921,487.534 396.721,482.032 415.326,461.77 C390.152,438.494 383.332,400.109 401.18,369.194 C419.028,338.279 455.68,324.994 488.426,335.156 C496.671,308.913 486.035,279.487 461.237,265.171 Z" id="Path"></path>
                <path d="M84.815,384.209 C72.376,362.664 44.829,355.283 23.284,367.723 C1.741,380.161 -6.643,407.708 5.797,429.253 C18.234,450.796 46.784,458.178 68.327,445.739 C89.872,433.3 97.253,405.752 84.815,384.209 Z" id="Path"></path>
                <path d="M233.88,402.169 C225.603,387.832 207.196,382.901 192.86,391.177 L166.854,406.191 L106.796,302.168 L132.802,287.154 C147.139,278.877 152.07,260.47 143.794,246.134 C135.517,231.797 117.11,226.866 102.774,235.142 L50.764,265.171 C25.966,279.487 15.33,308.913 23.576,335.157 C56.321,324.994 92.974,338.28 110.822,369.195 C128.67,400.11 121.85,438.494 96.676,461.771 C115.281,482.032 146.081,487.535 170.879,473.219 L222.889,443.189 C237.225,434.912 242.157,416.505 233.88,402.169 Z" id="Path"></path>
            </g>
            <circle id="Oval" cx="256" cy="291" r="80"></circle>
        </g>
    </g>
</svg>